HIERARCHY
ROOT Hips
{
  OFFSET 150.432 88.1888 27.0678
  CHANNELS 6 Xposition Yposition Zposition Zrotation Xrotation Yrotation
  JOINT RightUpLeg
  {
    OFFSET -9.25679 -1.50405 0.000749919
    CHANNELS 3 Zrotation Xrotation Yrotation
    JOINT RightLeg
    {
      OFFSET 0.0460649 -41.9017 0.109432
      CHANNELS 3 Zrotation Xrotation Yrotation
      JOINT RightFoot
      {
        OFFSET 1.7988 -41.6468 0.413135
        CHANNELS 3 Zrotation Xrotation Yrotation
        End Site
        {
          OFFSET 0 -7.69 17.5
        }
      }
    }
  }
  JOINT LeftUpLeg
  {
    OFFSET 9.37007 -1.70178 -0.0772456
    CHANNELS 3 Zrotation Xrotation Yrotation
    JOINT LeftLeg
    {
      OFFSET 0.225295 -41.8622 -0.102498
      CHANNELS 3 Zrotation Xrotation Yrotation
      JOINT LeftFoot
      {
        OFFSET -2.07126 -41.2817 -1.22305
        CHANNELS 3 Zrotation Xrotation Yrotation
        End Site
        {
          OFFSET 0 -7.69 17.5
        }
      }
    }
  }
  JOINT Spine
  {
    OFFSET 0.0614897 14.2979 0.0172263
    CHANNELS 3 Zrotation Xrotation Yrotation
    JOINT Spine1
    {
      OFFSET 0.0253415 9.71429 0.00919728
      CHANNELS 3 Zrotation Xrotation Yrotation
      JOINT Spine2
      {
        OFFSET -0.0163533 10.1275 0.00641818
        CHANNELS 3 Zrotation Xrotation Yrotation
        JOINT Spine3
        {
          OFFSET 0.00964153 9.71178 0.018187
          CHANNELS 3 Zrotation Xrotation Yrotation
          JOINT Neck
          {
            OFFSET -0.0402277 10.3749 0.0917408
            CHANNELS 3 Zrotation Xrotation Yrotation
            JOINT Head
            {
              OFFSET 0.0121048 9.49481 0.108971
              CHANNELS 3 Zrotation Xrotation Yrotation
              End Site
              {
                OFFSET 0 15.95 0
              }
            }
          }
          JOINT RightShoulder
          {
            OFFSET -3.18208 6.946 0.015457
            CHANNELS 3 Zrotation Xrotation Yrotation
            JOINT RightArm
            {
              OFFSET -12.7708 0.0386499 -0.00729584
              CHANNELS 3 Zrotation Xrotation Yrotation
              JOINT RightForeArm
              {
                OFFSET -26.422 0.00272702 0.0331834
                CHANNELS 3 Zrotation Xrotation Yrotation
                JOINT RightHand
                {
                  OFFSET -25.9963 -0.0318335 0.00677283
                  CHANNELS 3 Zrotation Xrotation Yrotation
                  JOINT RightHandThumb1
                  {
                    OFFSET -2.48905 0.190105 3.12053
                    CHANNELS 3 Zrotation Xrotation Yrotation
                    JOINT RightHandThumb2
                    {
                      OFFSET -3.68274 0 0
                      CHANNELS 3 Zrotation Xrotation Yrotation
                      JOINT RightHandThumb3
                      {
                        OFFSET -2.55832 0 0
                        CHANNELS 3 Zrotation Xrotation Yrotation
                        End Site
                        {
                          OFFSET -2.194 0 0
                        }
                      }
                    }
                  }
                  JOINT RightInHandIndex
                  {
                    OFFSET -3.22368 0.508421 1.97842
                    CHANNELS 3 Zrotation Xrotation Yrotation
                    JOINT RightHandIndex1
                    {
                      OFFSET -5.21684 -0.091368 0.999158
                      CHANNELS 3 Zrotation Xrotation Yrotation
                      JOINT RightHandIndex2
                      {
                        OFFSET -3.61937 0 0
                        CHANNELS 3 Zrotation Xrotation Yrotation
                        JOINT RightHandIndex3
                        {
                          OFFSET -2.0521 0 0
                          CHANNELS 3 Zrotation Xrotation Yrotation
                          End Site
                          {
                            OFFSET -1.805 0 0
                          }
                        }
                      }
                    }
                  }
                  JOINT RightInHandMiddle
                  {
                    OFFSET -3.38211 0.517263 0.756737
                    CHANNELS 3 Zrotation Xrotation Yrotation
                    JOINT RightHandMiddle1
                    {
                      OFFSET -5.17411 -0.084 0.313895
                      CHANNELS 3 Zrotation Xrotation Yrotation
                      JOINT RightHandMiddle2
                      {
                        OFFSET -3.94947 0 0
                        CHANNELS 3 Zrotation Xrotation Yrotation
                        JOINT RightHandMiddle3
                        {
                          OFFSET -2.47579 0 0
                          CHANNELS 3 Zrotation Xrotation Yrotation
                          End Site
                          {
                            OFFSET -1.975 0 0
                          }
                        }
                      }
                    }
                  }
                  JOINT RightInHandRing
                  {
                    OFFSET -3.36516 0.537895 -0.128947
                    CHANNELS 3 Zrotation Xrotation Yrotation
                    JOINT RightHandRing1
                    {
                      OFFSET -4.63474 -0.022105 -0.478947
                      CHANNELS 3 Zrotation Xrotation Yrotation
                      JOINT RightHandRing2
                      {
                        OFFSET -3.44238 0 0
                        CHANNELS 3 Zrotation Xrotation Yrotation
                        JOINT RightHandRing3
                        {
                          OFFSET -2.3881 0 0
                          CHANNELS 3 Zrotation Xrotation Yrotation
                          End Site
                          {
                            OFFSET -1.857 0 0
                          }
                        }
                      }
                    }
                  }
                  JOINT RightInHandPinky
                  {
                    OFFSET -3.16105 0.469368 -1.20179
                    CHANNELS 3 Zrotation Xrotation Yrotation
                    JOINT RightHandPinky1
                    {
                      OFFSET -4.14105 -0.022105 -1.09053
                      CHANNELS 3 Zrotation Xrotation Yrotation
                      JOINT RightHandPinky2
                      {
                        OFFSET -2.75653 0 0
                        CHANNELS 3 Zrotation Xrotation Yrotation
                        JOINT RightHandPinky3
                        {
                          OFFSET -1.74189 0 0
                          CHANNELS 3 Zrotation Xrotation Yrotation
                          End Site
                          {
                            OFFSET -1.645 0 0
                          }
                        }
                      }
                    }
                  }
                }
              }
            }
          }
          JOINT LeftShoulder
          {
            OFFSET 3.18966 6.92856 0.062398
            CHANNELS 3 Zrotation Xrotation Yrotation
            JOINT LeftArm
            {
              OFFSET 12.7601 -0.0509086 0.00275124
              CHANNELS 3 Zrotation Xrotation Yrotation
              JOINT LeftForeArm
              {
                OFFSET 26.4828 -0.0571091 -0.0285564
                CHANNELS 3 Zrotation Xrotation Yrotation
                JOINT LeftHand
                {
                  OFFSET 25.9994 -0.0171136 -0.0547064
                  CHANNELS 3 Zrotation Xrotation Yrotation
                  JOINT LeftHandThumb1
                  {
                    OFFSET 2.48905 0.190105 3.12053
                    CHANNELS 3 Zrotation Xrotation Yrotation
                    JOINT LeftHandThumb2
                    {
                      OFFSET 3.68274 0 0
                      CHANNELS 3 Zrotation Xrotation Yrotation
                      JOINT LeftHandThumb3
                      {
                        OFFSET 2.55832 0 0
                        CHANNELS 3 Zrotation Xrotation Yrotation
                        End Site
                        {
                          OFFSET 2.194 0 0
                        }
                      }
                    }
                  }
                  JOINT LeftInHandIndex
                  {
                    OFFSET 3.22368 0.508421 1.97842
                    CHANNELS 3 Zrotation Xrotation Yrotation
                    JOINT LeftHandIndex1
                    {
                      OFFSET 5.21684 -0.091368 0.999158
                      CHANNELS 3 Zrotation Xrotation Yrotation
                      JOINT LeftHandIndex2
                      {
                        OFFSET 3.61937 0 0
                        CHANNELS 3 Zrotation Xrotation Yrotation
                        JOINT LeftHandIndex3
                        {
                          OFFSET 2.0521 0 0
                          CHANNELS 3 Zrotation Xrotation Yrotation
                          End Site
                          {
                            OFFSET 1.805 0 0
                          }
                        }
                      }
                    }
                  }
                  JOINT LeftInHandMiddle
                  {
                    OFFSET 3.38211 0.517263 0.756737
                    CHANNELS 3 Zrotation Xrotation Yrotation
                    JOINT LeftHandMiddle1
                    {
                      OFFSET 5.17411 -0.084 0.313895
                      CHANNELS 3 Zrotation Xrotation Yrotation
                      JOINT LeftHandMiddle2
                      {
                        OFFSET 3.94947 0 0
                        CHANNELS 3 Zrotation Xrotation Yrotation
                        JOINT LeftHandMiddle3
                        {
                          OFFSET 2.47579 0 0
                          CHANNELS 3 Zrotation Xrotation Yrotation
                          End Site
                          {
                            OFFSET 1.975 0 0
                          }
                        }
                      }
                    }
                  }
                  JOINT LeftInHandRing
                  {
                    OFFSET 3.36516 0.537895 -0.128947
                    CHANNELS 3 Zrotation Xrotation Yrotation
                    JOINT LeftHandRing1
                    {
                      OFFSET 4.63474 -0.022105 -0.478947
                      CHANNELS 3 Zrotation Xrotation Yrotation
                      JOINT LeftHandRing2
                      {
                        OFFSET 3.44238 0 0
                        CHANNELS 3 Zrotation Xrotation Yrotation
                        JOINT LeftHandRing3
                        {
                          OFFSET 2.3881 0 0
                          CHANNELS 3 Zrotation Xrotation Yrotation
                          End Site
                          {
                            OFFSET 1.857 0 0
                          }
                        }
                      }
                    }
                  }
                  JOINT LeftInHandPinky
                  {
                    OFFSET 3.16105 0.469368 -1.20179
                    CHANNELS 3 Zrotation Xrotation Yrotation
                    JOINT LeftHandPinky1
                    {
                      OFFSET 4.14105 -0.022105 -1.09053
                      CHANNELS 3 Zrotation Xrotation Yrotation
                      JOINT LeftHandPinky2
                      {
                        OFFSET 2.75653 0 0
                        CHANNELS 3 Zrotation Xrotation Yrotation
                        JOINT LeftHandPinky3
                        {
                          OFFSET 1.74189 0 0
                          CHANNELS 3 Zrotation Xrotation Yrotation
                          End Site
                          {
                            OFFSET 1.645 0 0
                          }
                        }
                      }
                    }
                  }
                }
              }
            }
          }
        }
      }
    }
  }
}
MOTION
Frames: 3
Frame Time: 0.00833333
7.495782536884371439e+02 -4.740030202335674403e-01 -7.987454862875793538e-01 -3.318180810619960397e+00 -3.062563001964225151e+00 -2.465083331745796613e+01 3.254368733485464560e+01 4.982877376063889585e+00 3.140156995066929468e+01 -6.203134902800444550e+00 -3.889624813058102148e+00 8.038753155437458275e+00 1.498580816119782000e+00 3.486458927432088295e+00 3.878807619825115349e+00 1.173708462127253682e+01 1.293342051614854782e+01 1.376166433173705883e+01 -5.736643387029848995e+00 5.748538839410898049e+00 8.199636098999842915e+00 -2.586243026063950623e+00 -6.184109747461000950e+00 3.058189454483702718e+00 1.451570714319887045e+00 -6.342497087128870170e+00 -2.087375948299861506e+01 1.991625455085244134e-01 -2.575278534353968141e+00 -5.028804305028446109e+00 2.094834442007726949e-01 -3.836870318713569539e+00 -7.740599476562928238e+00 -5.328423539116738938e-01 -7.252815425242731262e-02 2.163223139766061731e+00 -1.761721282469596250e+00 -4.727112493125193438e-01 1.318584244993594545e+01 -1.070940326378518925e+01 -1.523386493443982470e+00 3.423224347452139682e+01 5.614404187760141385e-01 2.750825988968277791e+00 -6.329506242932996685e+00 2.087380141016229373e+01 -5.745610015756054345e+00 -7.565146880406241792e+01 1.872460473417466886e+01 2.698993077258609574e+01 -1.248477497169683375e+02 -1.359181401911003562e+01 5.160262948494523272e+00 6.301981028629862536e+00 1.065814103640150279e-14 0.000000000000000000e+00 -1.421085471520200372e-14 -6.007531149668996142e-15 5.006779088153666953e-15 0.000000000000000000e+00 -1.731887475363799424e-14 -3.388956978222973173e-15 0.000000000000000000e+00 2.245183571397749484e-16 6.438556532118363764e-15 3.126044162405057681e-15 -1.065814103640150279e-14 -3.330669073875469621e-16 0.000000000000000000e+00 0.000000000000000000e+00 -3.551341195167480317e-15 6.468229067520794729e-15 0.000000000000000000e+00 2.527423531279460318e-15 1.489608556512468602e-14 2.245183571397749484e-16 6.438556532118363764e-15 3.126044162405057681e-15 0.000000000000000000e+00 -5.354046201767779891e-15 -1.754166644126305069e-15 0.000000000000000000e+00 -2.163499992917735133e-15 -8.295652567212356606e-15 0.000000000000000000e+00 5.395546282083084015e-15 6.389646948076203886e-15 2.245183571397749484e-16 6.438556532118363764e-15 3.126044162405057681e-15 7.105427357601001859e-15 -4.440892098500626162e-16 -1.332267629550187849e-15 0.000000000000000000e+00 1.434463568012924648e-15 -2.389373343566323995e-15 0.000000000000000000e+00 -1.307270108800368986e-15 5.665378438097682492e-15 2.245183571397749484e-16 6.438556532118363764e-15 3.126044162405057681e-15 -1.065814103640150279e-14 -2.220446049250313081e-15 3.552713678800500929e-15 0.000000000000000000e+00 -2.059854536218245494e-15 -1.699707248075332455e-14 0.000000000000000000e+00 1.626760095701840883e-15 1.297120148613000179e-14 3.753633395383998206e+00 -5.400445992407789220e+00 -1.120690527256133606e+00 4.280799321272024116e+01 3.891553774549088018e-01 -5.346510119114013548e+01 3.241150414399471913e+01 5.050365673512678200e+01 5.347140292459431521e+01 -1.773849826567035848e+01 -2.810142336899562210e+01 -4.972792538624461400e+01 -1.065814103640150279e-14 0.000000000000000000e+00 1.421085471520200372e-14 1.388007111903357256e-15 3.415209537730481705e-15 0.000000000000000000e+00 5.242903422526993865e-15 -7.863957695662433830e-15 0.000000000000000000e+00 4.048564455420882187e-15 -3.119839545576001690e-16 -3.889220772806915778e-15 1.065814103640150279e-14 -3.330669073875469621e-16 0.000000000000000000e+00 0.000000000000000000e+00 5.514563380846517566e-15 -9.923972018235786585e-15 0.000000000000000000e+00 7.234491758508885868e-15 -1.718911994722326676e-15 4.048564455420882187e-15 -3.119839545576001690e-16 -3.889220772806915778e-15 0.000000000000000000e+00 5.329634870143983384e-15 -7.750734560571779393e-15 0.000000000000000000e+00 -2.283348416140147575e-15 -1.688496930998889880e-15 0.000000000000000000e+00 -3.399230551307302379e-15 -8.209225015414895467e-15 4.048564455420882187e-15 -3.119839545576001690e-16 -3.889220772806915778e-15 -7.105427357601001859e-15 -4.440892098500626162e-16 1.332267629550187849e-15 0.000000000000000000e+00 4.758889622171189340e-16 -1.840312245744293134e-15 0.000000000000000000e+00 -5.505403144292294056e-15 -2.959172847217925627e-15 4.048564455420882187e-15 -3.119839545576001690e-16 -3.889220772806915778e-15 1.065814103640150279e-14 -2.220446049250313081e-15 -3.552713678800500929e-15 0.000000000000000000e+00 4.723520044099822812e-15 -3.318309613273438425e-15 0.000000000000000000e+00 3.827048983349380264e-15 3.282260196240487891e-15
7.495935854401062670e+02 -4.671172339089793013e-01 -8.136638741988591050e-01 -3.276174807198497518e+00 -3.016863844012664941e+00 -2.442692900497092978e+01 3.225968360850734484e+01 4.968010638919167832e+00 3.112829814355977476e+01 -6.152892611857536664e+00 -3.845038178604621493e+00 7.963834837922430410e+00 1.477869137891392626e+00 3.437119340526397782e+00 3.829481953338458755e+00 1.163563117263340274e+01 1.284075410114044757e+01 1.364086075594548930e+01 -5.670968289310602373e+00 5.690551319340926284e+00 8.107374347143700533e+00 -2.571432410535257063e+00 -6.127323144137815092e+00 3.021915378943508479e+00 1.430265348804649506e+00 -6.302707731521095980e+00 -2.066498781259289075e+01 1.952856507600291280e-01 -2.548997322341924665e+00 -4.976790043245252093e+00 2.046352993237192663e-01 -3.808265316617169383e+00 -7.660694463284567490e+00 -5.259146717423710538e-01 -6.918582153987631878e-02 2.142916864651370989e+00 -1.747245406442039295e+00 -4.671736228999706642e-01 1.310369252681707408e+01 -1.058132785285271282e+01 -1.457953316995956428e+00 3.388735197825202050e+01 5.385301455059479103e-01 2.718838498786471547e+00 -6.272322770373560452e+00 2.066838751846695743e+01 -5.664257831419051925e+00 -7.496829405758674625e+01 1.841505526508011314e+01 2.667193049421359774e+01 -1.247862437586593529e+02 -1.343674312161062190e+01 5.116865206063770266e+00 6.230452338309382831e+00 1.065814103640150279e-14 0.000000000000000000e+00 -1.421085471520200372e-14 -5.997284795686902432e-15 4.999187178779214479e-15 0.000000000000000000e+00 -1.713992550313714920e-14 -3.365769949100368697e-15 0.000000000000000000e+00 2.347694733714865051e-16 6.347499242385320566e-15 3.063708604861868577e-15 -1.065814103640150279e-14 -3.330669073875469621e-16 0.000000000000000000e+00 0.000000000000000000e+00 -3.455021195856593355e-15 6.467764507782340794e-15 0.000000000000000000e+00 2.549182674435549168e-15 1.488026040777480409e-14 2.347694733714865051e-16 6.347499242385320566e-15 3.063708604861868577e-15 0.000000000000000000e+00 -5.350239192849887115e-15 -1.733174017331446639e-15 0.000000000000000000e+00 -2.149767765706760829e-15 -8.278593181969127481e-15 0.000000000000000000e+00 5.413909968628640706e-15 6.498425615398893205e-15 2.347694733714865051e-16 6.347499242385320566e-15 3.063708604861868577e-15 7.105427357601001859e-15 -4.440892098500626162e-16 -1.332267629550187849e-15 0.000000000000000000e+00 1.422099445074206248e-15 -2.341399109458378265e-15 0.000000000000000000e+00 -1.293315149096155879e-15 5.637180358825761374e-15 2.347694733714865051e-16 6.347499242385320566e-15 3.063708604861868577e-15 -1.065814103640150279e-14 -2.220446049250313081e-15 3.552713678800500929e-15 0.000000000000000000e+00 -2.087445131793004829e-15 -1.688939121919117803e-14 0.000000000000000000e+00 1.619201082806757797e-15 1.276822858606220739e-14 3.776460336566378473e+00 -5.346850948286590466e+00 -1.073405884959939272e+00 4.227170009847470311e+01 3.780258650104642015e-01 -5.284586797831525473e+01 3.200173510044803038e+01 4.995482902552252114e+01 5.246956409968516510e+01 -1.749666397134194540e+01 -2.788477633195636685e+01 -4.925973761328256018e+01 -1.065814103640150279e-14 0.000000000000000000e+00 1.421085471520200372e-14 1.400775487193789715e-15 3.423345793811071709e-15 0.000000000000000000e+00 5.218408139098757050e-15 -7.775485153379912160e-15 0.000000000000000000e+00 3.975951942634822930e-15 -3.527492082609589025e-16 -3.868212191928014901e-15 1.065814103640150279e-14 -3.330669073875469621e-16 0.000000000000000000e+00 0.000000000000000000e+00 5.480116380565632453e-15 -9.739017466652063173e-15 0.000000000000000000e+00 7.156200200526693011e-15 -1.711204238429495384e-15 3.975951942634822930e-15 -3.527492082609589025e-16 -3.868212191928014901e-15 0.000000000000000000e+00 5.315060522365716482e-15 -7.608224162199088261e-15 0.000000000000000000e+00 -2.277911616580138167e-15 -1.587402956356469972e-15 0.000000000000000000e+00 -3.390627560625936359e-15 -8.029594450349416838e-15 3.975951942634822930e-15 -3.527492082609589025e-16 -3.868212191928014901e-15 -7.105427357601001859e-15 -4.440892098500626162e-16 1.332267629550187849e-15 0.000000000000000000e+00 4.350602120484165496e-16 -1.735199533233307702e-15 0.000000000000000000e+00 -5.473272982026473370e-15 -2.783244322608094702e-15 3.975951942634822930e-15 -3.527492082609589025e-16 -3.868212191928014901e-15 1.065814103640150279e-14 -2.220446049250313081e-15 -3.552713678800500929e-15 0.000000000000000000e+00 4.651380981462599475e-15 -3.203394334207499865e-15 0.000000000000000000e+00 3.810724683419977544e-15 3.289226655673394364e-15
7.496088400642396437e+02 -4.600781708048202745e-01 -8.277586251722546251e-01 -3.232979038678557515e+00 -2.970194830263952923e+00 -2.419273946217725779e+01 3.196199410014492770e+01 4.950420508509111528e+00 3.084180136197898747e+01 -6.099996836372389986e+00 -3.799002754219550582e+00 7.885645999863033495e+00 1.456714518892599841e+00 3.386627501890111969e+00 3.778782836914674537e+00 1.152926707431639386e+01 1.274212646142449401e+01 1.351430501820091479e+01 -5.603076457052974746e+00 5.630343080088671570e+00 8.011973724175934564e+00 -2.555329818447182433e+00 -6.067996167229001259e+00 2.984555610398765602e+00 1.408582290746233312e+00 -6.259847120552521460e+00 -2.044787114586644350e+01 1.913758632764266387e-01 -2.521636616928855101e+00 -4.922798533449929792e+00 1.997778382062955771e-01 -3.777921920492629759e+00 -7.577753354422402055e+00 -5.188090787999640741e-01 -6.586273061538096274e-02 2.121726173315864994e+00 -1.732000881447137486e+00 -4.614669132361595705e-01 1.301518056475359231e+01 -1.044946902445545156e+01 -1.392906005895972577e+00 3.352901214533058294e+01 5.156927805537698806e-01 2.685858634068842399e+00 -6.212472554620790177e+00 2.045577182472560196e+01 -5.580527949856698200e+00 -7.425325569696492778e+01 1.810133130918746147e+01 2.634361550832226939e+01 -1.246466449932803755e+02 -1.327682473074502667e+01 5.071047231604774552e+00 6.156627708898213314e+00 1.065814103640150279e-14 0.000000000000000000e+00 -1.421085471520200372e-14 -5.983435413916628223e-15 4.988711065369952461e-15 0.000000000000000000e+00 -1.695519616443933820e-14 -3.341065764347996648e-15 0.000000000000000000e+00 2.443471523009830514e-16 6.254035147964770656e-15 3.000622194775039189e-15 -1.065814103640150279e-14 -3.330669073875469621e-16 0.000000000000000000e+00 0.000000000000000000e+00 -3.358194284292325368e-15 6.463317195211708167e-15 0.000000000000000000e+00 2.569405927478688941e-15 1.485599827505930136e-14 2.443471523009830514e-16 6.254035147964770656e-15 3.000622194775039189e-15 0.000000000000000000e+00 -5.343511218156447552e-15 -1.712099575701385136e-15 0.000000000000000000e+00 -2.134628964678715420e-15 -8.257047078450496601e-15 0.000000000000000000e+00 5.428755225044543381e-15 6.601731243070255187e-15 2.443471523009830514e-16 6.254035147964770656e-15 3.000622194775039189e-15 7.105427357601001859e-15 -4.440892098500626162e-16 -1.332267629550187849e-15 0.000000000000000000e+00 1.409162061295099601e-15 -2.292597443411927433e-15 0.000000000000000000e+00 -1.278478383489072536e-15 5.606827825835371388e-15 2.443471523009830514e-16 6.254035147964770656e-15 3.000622194775039189e-15 -1.065814103640150279e-14 -2.220446049250313081e-15 3.552713678800500929e-15 0.000000000000000000e+00 -2.113579654638865773e-15 -1.677401143314643121e-14 0.000000000000000000e+00 1.610916114455350969e-15 1.256056286351708133e-14 3.796684494997315529e+00 -5.290979516483421463e+00 -1.026458966038322984e+00 4.172045278099378152e+01 3.672622024332881097e-01 -5.220670099638658712e+01 3.157800726873341191e+01 4.938742796935341772e+01 5.145090038058371817e+01 -1.724967879663328318e+01 -2.765483057837217018e+01 -4.876981827560162941e+01 -1.065814103640150279e-14 0.000000000000000000e+00 1.421085471520200372e-14 1.412371771401701096e-15 3.429395820655387647e-15 0.000000000000000000e+00 5.190952122914022290e-15 -7.683779719441751184e-15 0.000000000000000000e+00 3.902069648174204295e-15 -3.922233025299736461e-16 -3.845196493353065983e-15 1.065814103640150279e-14 -3.330669073875469621e-16 0.000000000000000000e+00 0.000000000000000000e+00 5.442872255327900703e-15 -9.551172746272928487e-15 0.000000000000000000e+00 7.074787002067266482e-15 -1.702521555134811615e-15 3.902069648174204295e-15 -3.922233025299736461e-16 -3.845196493353065983e-15 0.000000000000000000e+00 5.297631828678105511e-15 -7.463529125223848918e-15 0.000000000000000000e+00 -2.271092888513735433e-15 -1.486923703977472415e-15 0.000000000000000000e+00 -3.379757113611617079e-15 -7.847879920992668692e-15 3.902069648174204295e-15 -3.922233025299736461e-16 -3.845196493353065983e-15 -7.105427357601001859e-15 -4.440892098500626162e-16 1.332267629550187849e-15 0.000000000000000000e+00 3.943354651428753734e-16 -1.630843986140807611e-15 0.000000000000000000e+00 -5.438382240832826708e-15 -2.608749668746740328e-15 3.902069648174204295e-15 -3.922233025299736461e-16 -3.845196493353065983e-15 1.065814103640150279e-14 -2.220446049250313081e-15 -3.552713678800500929e-15 0.000000000000000000e+00 4.577585286127653353e-15 -3.088469874373594640e-15 0.000000000000000000e+00 3.792158387974109712e-15 3.294324324329092994e-15
